# xmcd
#
# Track frame offsets: 
#        150
#        15725
#        30990
#        42363
#        62398
#        94320
#        106515
#        128505
#        148963
#        163403
#        181463
#        196598
#        210030
#        235233
#        252503
#        269035
#
# Disc length: 3781 seconds
#
# Revision: 7
# Processed by: cddbd v1.5.2PL0 Copyright (c) Steve Scherf et al.
# Submitted via: ExactAudioCopyFreeDBPlugin 1.0
#
DISCID=d70ec310
DTITLE=Coleman Hawkins - Verve Jazz Masters 34 - Coleman Hawkins
DYEAR=1994
DGENRE=Jazz
TTITLE0=Body and Soul
TTITLE1=The Big Head
TTITLE2=Time On My Hands
TTITLE3=Rifftide (aka "Disorder at the Border")
TTITLE4=Bean And The Boys
TTITLE5=Cocktails for Two
TTITLE6=Hanid
TTITLE7=Just One of Those Things
TTITLE8=I Only Have Eyes For You
TTITLE9=Hallelujah!
TTITLE10=Night and Day
TTITLE11='S Wonderful
TTITLE12=Ill Wind (Your're Blowin' Me No Good)
TTITLE13=The World Is Waiting for the Sunrise
TTITLE14=I Wished On the Moon
TTITLE15=Picasso
EXTD=YEAR: 1994
EXTT0=
EXTT1=
EXTT2=
EXTT3=
EXTT4=
EXTT5=
EXTT6=
EXTT7=
EXTT8=
EXTT9=
EXTT10=
EXTT11=
EXTT12=
EXTT13=
EXTT14=
EXTT15=
PLAYORDER=
